Coordinates
version=1
nRows=17
nColumns=17
inDegrees=yes

Units are S.I. units (second, meters, Newtons, ...)
If the header above contains a line with 'inDegrees', this indicates whether rotational values are in degrees (yes) or radians (no).

endheader
time	pelvis_tilt	pelvis_tx	pelvis_ty	hip_flexion_l	hip_flexion_r	knee_angle_l	knee_angle_r	ankle_angle_l	ankle_angle_r	lumbar_extension	FC_flexion	FC_adduction	FC_rotation	FC_tx	FC_ty	FC_tz
      5.76000000	    108.12273188	     -0.32787620	      1.03765763	     76.69822918	    -18.21509791	    -70.33019554	     -4.72052378	    -23.67763853	    -41.82097650	    -34.04763415	      0.91385385	     -0.06200486	     95.99253086	     -0.14089071	     -0.14572008	     -0.22225178
      5.77000000	    108.11624913	     -0.32786269	      1.03766025	     76.69675235	    -18.21077769	    -70.38985244	     -4.71534191	    -23.70171850	    -41.81062573	    -34.04610123	      1.04015233	     -0.03937847	     95.92025368	     -0.14063756	     -0.14601960	     -0.22218494
      5.78000000	    108.13926766	     -0.32786653	      1.03764314	     76.64493851	    -18.23725466	    -70.34583410	     -4.71166037	    -23.89385861	    -41.77421210	    -34.07587908	      1.00166763	     -0.04098679	     95.98795738	     -0.14067912	     -0.14605080	     -0.22220540
      5.79000000	    108.15081301	     -0.32785787	      1.03770575	     76.58790522	    -18.25896426	    -70.18932799	     -4.70317772	    -24.24551167	    -41.77499641	    -34.07809509	      0.93360310	     -0.11643345	     96.15891473	     -0.14114318	     -0.14580605	     -0.22238618
      5.80000000	    108.15218381	     -0.32784899	      1.03772878	     76.56351452	    -18.26135814	    -70.17585781	     -4.70452733	    -24.25567649	    -41.78038148	    -34.06860144	      0.86736342	     -0.12052503	     96.42542536	     -0.14086864	     -0.14584930	     -0.22231959
      5.81000000	    108.14530179	     -0.32782265	      1.03775009	     76.52924775	    -18.25500975	    -70.18306143	     -4.70430018	    -24.21964318	    -41.78693398	    -34.06191642	      0.93556888	     -0.05503023	     96.63751268	     -0.14083036	     -0.14575568	     -0.22222672
      5.82000000	    108.13489724	     -0.32781102	      1.03774497	     76.52141967	    -18.24250160	    -70.26595748	     -4.70694668	    -23.86866076	    -41.81285937	    -34.05422262	      0.93593055	      0.05906843	     96.67774196	     -0.14045153	     -0.14582734	     -0.22213497
      5.83000000	    108.14122838	     -0.32779719	      1.03775888	     76.49186260	    -18.25109304	    -70.19096270	     -4.70480220	    -23.90192373	    -41.81949032	    -34.05554421	      0.78310942	      0.16203067	     96.64737424	     -0.14079865	     -0.14563212	     -0.22216432
      5.84000000	    108.13416915	     -0.32779118	      1.03774882	     76.47398669	    -18.24195600	    -70.21848878	     -4.70510532	    -23.90898918	    -41.81964775	    -34.05420868	      0.78781417	      0.19735931	     96.66876881	     -0.14062982	     -0.14568593	     -0.22225692
      5.85000000	    108.12880524	     -0.32777764	      1.03774891	     76.45777422	    -18.23703183	    -70.23529956	     -4.70719254	    -23.91889618	    -41.82017836	    -34.04963825	      0.79190759	      0.22414616	     96.75714366	     -0.14043272	     -0.14573058	     -0.22231042
      5.86000000	    108.11257986	     -0.32775425	      1.03778335	     76.45922156	    -18.22228223	    -70.25731291	     -4.70362659	    -24.13542939	    -41.86048102	    -34.02700437	      0.84048277	      0.20085884	     96.83615593	     -0.14048422	     -0.14577815	     -0.22246050
      5.87000000	    108.10799719	     -0.32774337	      1.03777924	     76.44575709	    -18.21778472	    -70.26171841	     -4.70292491	    -24.13551342	    -41.86113241	    -34.02101874	      0.84452749	      0.18942879	     96.91363475	     -0.14052386	     -0.14573989	     -0.22260434
      5.88000000	    108.09735271	     -0.32773559	      1.03778664	     76.43597107	    -18.21408306	    -70.29147336	     -4.68793626	    -24.12603352	    -41.86608032	    -34.00673767	      0.92904435	      0.20744346	     97.00128571	     -0.14055086	     -0.14566828	     -0.22268968
      5.89000000	    108.09047861	     -0.32772439	      1.03779798	     76.42777816	    -18.20729833	    -70.32831562	     -4.68691227	    -24.12121994	    -41.86629981	    -34.00190006	      0.93515308	      0.21899257	     97.05612186	     -0.14050506	     -0.14562381	     -0.22275026
      5.90000000	    108.08826092	     -0.32771768	      1.03774742	     76.43873511	    -18.20331631	    -70.35155855	     -4.68683971	    -24.12081975	    -41.86789595	    -34.00484808	      0.93522643	      0.22036009	     97.08671899	     -0.14066086	     -0.14572643	     -0.22278363
      5.91000000	    108.07151060	     -0.32770953	      1.03779193	     76.44594337	    -18.20047044	    -70.39766248	     -4.66327927	    -24.11064331	    -41.87585291	    -33.97870819	      0.98249581	      0.24436048	     97.14484992	     -0.14064310	     -0.14577519	     -0.22274437
      5.92000000	    108.01612254	     -0.32767677	      1.03778452	     76.50421999	    -18.13629644	    -70.44192851	     -4.66920577	    -24.03702198	    -41.92370874	    -33.91991292	      0.96469682	      0.28704019	     97.25115246	     -0.14059044	     -0.14589118	     -0.22271694
